<svg width="296" height="66" viewBox="0 0 296 66" fill="none" xmlns="http://www.w3.org/2000/svg">
<path d="M66.8795 63.9233V65.0667L81.2305 65.1382V63.8876L88.5662 63.9233V61.5293H93.3024V60.3144H95.7239V63.8876H97.0059V65.1382H119.797V63.8876H121.079V59.0638H118.657V57.8132H117.411V56.7413H113.85V55.455H112.639V53.1681H111.464V51.8461H110.182V50.6312H109.042V38.5896H107.796V36.0884H109.042V34.9093H105.303V33.7301V32.4795H104.128V27.763H102.953V25.2975H104.128V23.9754H102.953V21.6529H101.742V20.3308H100.567V16.6862H99.3206V10.7547H98.1098V9.53985V8.28925H99.3206V5.96669H98.1098V3.53694H96.9347V2.21487H94.4776V1H90.9877V2.21487H89.5989V3.53694H88.5662V5.96669H87.2843H86.1091V7.07437H84.934V8.28925H87.2843V10.7547H86.1091V16.6862H84.934V17.9368H83.7588V20.3308V23.9754H82.4768V32.4795H81.2305V33.7301H80.1265V37.339H77.6338V38.5896H80.1265V40.9479H78.8802V42.1271H77.6338V46.9866H76.5655V48.1657H75.2835V51.8103H74.1084V54.1329H72.862V56.6341H69.2654V57.9204H64.3867V62.7442H65.6687V63.9233H66.8795Z" fill="white" stroke="#2B292E"/>
<path d="M88.6019 44.2352V45.3786V46.665H87.5336V48.0942H86.2516V49.2376H90.9522V50.4525V51.5245H93.4449V52.6679H95.7952V51.5245H96.7923V50.4525H98.2167V49.2376H99.2138V46.665H96.7923V45.3786V44.2352H94.5844V43.0918H89.599V44.2352H88.6019Z" fill="#2B292E" stroke="#2B292E"/>
<path d="M89.67 29.2995V28.1561V25.7978H91.1657V23.2966H92.3052V21.0098H93.4448V22.2246H94.6555V23.2966H95.8663V28.1561H94.6555V29.6568H95.8663V31.8722H94.6555V33.087H91.1657V29.2995H89.67Z" fill="#2B292E" stroke="#2B292E"/>
<path d="M240.801 64.0664V65.2098L255.152 65.2813V64.0307L262.488 64.0664V61.6724H267.224V60.4575H269.645V64.0307H270.927V65.2813H293.718V64.0307H295V59.2069H292.579V57.9563H291.332V56.8844H287.771V55.598H286.56V53.3112H285.385V51.9891H284.103V50.7743H282.964V38.7327H281.717V36.2315H282.964V35.0523H279.225V33.8732V32.6226H278.05V27.906H276.874V25.4406H278.05V24.1185H276.874V21.7959H275.664V20.4739H274.488V16.8292H273.242V10.8978H272.031V9.68292V8.43231H273.242V6.10976H272.031V3.68001H270.856V2.35794H268.399V1.14307H264.909V2.35794H263.52V3.68001H262.488V6.10976H261.206H260.031V7.21744H258.855V8.43231H261.206V10.8978H260.031V16.8292H258.855V18.0798H257.68V20.4739V24.1185H256.398V32.6226H255.152V33.8732H254.048V37.4821H251.555V38.7327H254.048V41.091H252.802V42.2701H251.555V47.1296H250.487V48.3088H249.205V51.9534H248.03V54.2759H246.784V56.7772H243.187V58.0635H238.308V62.8873H239.59V64.0664H240.801Z" fill="white" stroke="#2B292E"/>
<path d="M262.523 44.3783V45.5217V46.808H261.455V48.2373H260.173V49.3807H264.874V50.5956V51.6675H267.366V52.8109H269.717V51.6675H270.714V50.5956H272.138V49.3807H273.135V46.808H270.714V45.5217V44.3783H268.506V43.2349H263.52V44.3783H262.523Z" fill="#2B292E" stroke="#2B292E"/>
<path d="M263.592 29.4426V28.2992V25.9409H265.087V23.4397H266.227V21.1528H267.366V22.3677H268.577V23.4397H269.788V28.2992H268.577V29.7999H269.788V32.0152H268.577V33.2301H265.087V29.4426H263.592Z" fill="#2B292E" stroke="#2B292E"/>
<path d="M3.3859 63.8519H21.476V62.6727H22.6868V60.243H19.0545V57.9562H17.9506V56.5984H15.4935V55.312H11.79V51.8461H13.0007V50.4525H14.2827V37.2318H13.0007V33.6944H11.79V29.9426H13.0007V21.5099H14.2827V19.1517H13.0007V10.719H16.5974V16.6862H17.8794V20.4023H18.9833L19.197 28.9064H20.3009V31.1932V34.8021H21.3692V37.2318H22.6868V44.5568H23.8975V49.3806H25.1795L24.9658 51.8461H23.8975V52.9895H25.1795V57.9562H26.2478V59.0638H24.9658V60.2073H26.2478V61.4936L27.5298 61.5293V65.0668H32.3728V62.7799V61.5293H33.5124V60.2073H35.8983V62.7799H37.0734V63.8162H38.2486H39.4949V65.0668H44.516V63.8162H47.9702V65.0668H49.3234V63.8162H53.9172V65.0668H55.2704V63.8162H57.585V62.6013V59.0281H55.2704V57.7775H52.8132V56.6341H51.6381V49.3806H50.3917V44.6283H51.6381V42.0199H50.3917V40.805V39.6973H51.6381V38.4467H50.3917V26.5124H51.5669V25.2618H50.3917V20.3665H51.5669V19.1517H50.3917V13.0415H51.5669V9.50412H53.9884V7.03864H55.1635V5.78803H56.4099V2.17914H55.1635V1H40.8481V2.17914H39.6017V3.46548H38.2842V4.57316V5.78803H37.1446V13.0415H35.827V19.1517H34.7943V24.0112H33.6192V27.5843H34.7943V29.9426H33.6192V32.4081H32.3016V36.0884H31.0552V37.2318V40.805H28.6693V37.2318H27.3517V36.0884H26.319V33.6944H27.3517V31.1932H25.0727V29.9426H26.319V28.9064H25.0727V27.5843H26.319V25.1188H25.0727V24.0112H26.319V21.5099H25.0727V15.5785H22.6868V10.6118H25.0727V8.25351H23.8263H22.6868V4.57316H21.5116H20.2297V3.46548H10.6504V2.17914H9.40407V3.46548H8.12209V4.57316H7.05378V3.46548H4.63227V4.57316H1.03561V5.8595H3.42151V7.1101H5.7718V8.25351H7.05378V14.2564H8.12209V29.9426H9.40407V36.0884H8.12209V38.4467H9.40407V42.0913H8.30015L8.12209 51.8461H9.40407V52.9895H10.6148V55.4907H9.40407L8.30015 55.312V56.5984H6.94695V57.849H5.87863V60.243H4.70349V61.4936H1V62.6727H3.3859V63.8519Z" fill="white" stroke="#2B292E"/>
<path d="M37.9282 51.8818H39.1746H40.3853V50.7026H42.9137V49.4163H44.0532V46.9866H45.2996V45.8432H46.4391V42.1628H45.2996V39.733H46.4391V35.0165H45.0147V32.6225C45.0147 32.158 46.4391 32.6225 46.4391 32.6225V28.9778H45.2996V26.5124H46.4391V21.6529H45.0147V20.4023H46.4391V18.0082H42.7V16.8291H45.2996V10.719H44.1244H42.8781H41.6317V11.9339H40.3853V14.3636H39.1746V16.8291H40.3853V20.4023H42.8781V21.6529H41.6317V24.0826H40.3853V27.763H39.1746V31.3719H37.9282V37.3033H36.8243V41.0551H35.6135V45.8432H36.8243V46.9866H35.6135V49.4163H36.8243V50.7026H37.9282V51.8818Z" fill="#2B292E" stroke="#2B292E"/>
<path d="M154.481 63.9235V65.1383H159.253V63.9235H160.535V62.7801H161.71V61.5652H162.814V60.3503H161.71H160.535V59.2069H159.253V57.9206H154.481V56.7772H148.427V55.598H147.217V54.3117H145.97V48.3088H144.866V47.0939H145.97V38.6255H147.217V36.2315H154.481V37.2677H155.87V44.6284H156.938V47.0939H160.535C160.559 47.4989 160.592 48.3088 160.535 48.3088H161.71H162.814V43.485H164.096V37.2677H167.764V36.2315H166.517V33.766H168.975V31.4792H172.5V32.6226H174.886V31.4792H176.061V28.9065H178.483V27.7274H179.8V26.5125H178.483V22.9751H177.343V21.6887H176.061V16.7935H174.886V12.0769H177.343V10.7906H178.483V9.68292H177.343V8.39658H176.061V5.96683H174.886V4.85915H173.675V3.60855H171.289V2.4294H167.693V1.14307H164.132V2.4294H159.217V1.14307H154.517V2.4294H147.252V3.60855H144.831V2.4294H140.059V3.60855H137.709V2.4294H135.287V4.85915H134.076H131.512V6.00256L127.987 5.89537V7.21744H131.655V8.36085H138.706V18.0798H140.059V22.9036H138.706V25.2976H140.059V30.0857H138.706V35.0166H140.059V37.3392H138.706V49.4522H140.166V55.205H138.955V57.9206H135.109V59.2069H127.844V61.5652H129.198H130.408V62.7801H131.619V63.9235H136.32V65.1383H138.955V63.9235H141.163V65.1383H142.302H143.584V63.9235H154.481Z" fill="white" stroke="#2B292E"/>
<path d="M148.57 8.46802H147.288H146.113V9.53997V10.8263H147.11V11.934H146.113V13.2561H144.76V18.0441H146.113V25.3333H147.11V27.7273H148.356V28.8708H151.988V27.7273H154.588V24.1185H155.656H156.903V20.4381V18.0441H159.217V16.9007H161.674C161.686 17.2103 161.703 17.8726 161.674 18.0441C161.646 18.2156 162.446 18.1155 162.85 18.0441V20.4381H165.378V22.9036H167.693V20.6168H169.046V15.5786H167.942V14.5424H166.731V13.2561H165.164V12.1126H164.238V10.9692H161.461V9.53997H156.974V8.46802H153.199V9.53997H148.57V8.46802Z" fill="#2B292E" stroke="#2B292E"/>
<path d="M167.799 26.5482V25.1904H169.01V27.7631H167.799V28.8351H166.518V30.1929H167.799V32.5511C167.799 32.837 166.043 32.6702 165.164 32.5511V26.5482H167.799Z" fill="#2B292E"/>
<path d="M167.799 25.1904V26.5482H165.164V32.5511C166.043 32.6702 167.799 32.837 167.799 32.5511C167.799 32.2653 167.799 30.8598 167.799 30.1929H166.518V28.8351H167.799V27.7631H169.01V25.1904H167.443" stroke="#2B292E"/>
<path d="M192.656 1.14307H191.409H190.163V2.39367H188.988V3.57282H187.741V6.00256H186.531V8.43231H188.988V9.68292H202.128V10.8621H203.552V13.2203V15.6501H204.727V19.259V20.5096H205.974V21.7245H204.727V24.047V28.9422H203.552V37.3392H204.727V39.8404H203.552V43.3778L204.727 43.5922V45.9148H203.552V48.273V51.9891H202.27V54.3117H200.953V55.5623H198.602V56.7057H196.252V55.5623H190.127V56.7057H189.059V57.8491H187.812V62.8515H191.302V64.0664H196.252V62.8515H200.953V64.0664H217.903V65.2098H220.396V64.0664H223.886V62.8515H226.379V58.1707H225.132V56.7057H222.782V55.5623H220.396V54.3117H217.903V55.5623H214.307H213.06V53.1325H211.921V50.7385H213.06V49.4879H211.921V48.273V47.1296H210.603V42.3416H209.499V36.1958H208.217V35.0524H209.499V33.8017V32.6583H210.603V31.3363H209.499V30.0857H208.217V28.9422H209.499V27.7274V26.4768H210.603V22.9036H209.499V21.7245H210.603V16.865H209.499V15.6501H210.603V12.0055H211.85V10.8621H213.06V12.0055H214.378V10.8621H222.746V9.68292H223.922V8.39658H226.343V3.57282H225.132V2.39367H222.746V3.57282H219.114V2.39367H208.36V1.14307H204.656V2.39367H198.602V1.14307H196.11V2.39367H192.656V1.14307Z" fill="white" stroke="#2B292E"/>
</svg>
